<?xml version="1.0" standalone="no"?>
<!DOCTYPE svg PUBLIC "-//W3C//DTD SVG 20010904//EN"
 "http://www.w3.org/TR/2001/REC-SVG-20010904/DTD/svg10.dtd">
<svg version="1.0" xmlns="http://www.w3.org/2000/svg"
 width="900.000000pt" height="900.000000pt" viewBox="0 0 900.000000 900.000000"
 preserveAspectRatio="xMidYMid meet">
<metadata>
Created by potrace 1.10, written by Peter Selinger 2001-2011
</metadata>
<g transform="translate(0.000000,900.000000) scale(0.100000,-0.100000)"
fill="#000000" stroke="none">
<path d="M5140 7874 c-14 -2 -56 -9 -95 -15 -38 -6 -90 -17 -115 -24 -25 -7
-56 -16 -70 -18 -34 -7 -103 -33 -165 -63 -29 -13 -54 -24 -58 -24 -21 0 -251
-151 -342 -225 -71 -57 -242 -230 -296 -300 -55 -71 -169 -245 -169 -259 0 -5
-6 -17 -13 -25 -15 -17 -95 -208 -120 -281 -14 -42 -24 -78 -61 -211 -9 -31
-16 -66 -16 -79 0 -13 -6 -46 -14 -74 -8 -28 -22 -89 -31 -136 -9 -47 -23
-115 -31 -151 -8 -37 -14 -77 -14 -89 0 -12 -7 -59 -15 -104 -40 -218 -49
-347 -49 -681 -1 -341 6 -424 50 -564 8 -25 14 -50 14 -58 0 -37 74 -164 133
-228 82 -89 101 -126 94 -181 -6 -57 -38 -120 -110 -217 -75 -102 -101 -130
-475 -507 -261 -262 -411 -403 -580 -546 -83 -69 -282 -213 -357 -257 -44 -26
-87 -52 -95 -57 -99 -63 -322 -140 -408 -140 -24 0 -75 9 -113 21 -82 25 -131
65 -234 193 -71 89 -144 146 -186 146 -63 0 -99 -109 -99 -304 0 -247 62 -375
218 -452 54 -27 63 -28 202 -28 147 0 177 5 340 57 222 72 582 280 867 502
233 183 354 291 667 595 159 155 146 143 252 235 166 144 317 265 330 265 3 0
23 13 43 28 20 16 43 32 51 35 8 4 31 17 50 28 140 85 246 121 359 122 71 0
93 -4 128 -22 46 -25 110 -104 131 -161 73 -204 53 -602 -54 -1080 -30 -137
-15 -206 57 -256 52 -36 164 -74 218 -74 25 0 72 -4 105 -10 126 -20 189 17
217 130 18 70 18 369 0 610 -7 96 -13 292 -14 435 0 242 1 264 22 320 34 94
90 140 207 171 74 19 228 81 284 114 26 15 74 43 106 61 100 55 294 208 405
318 110 111 164 184 194 263 21 58 10 95 -40 134 -65 50 -205 73 -297 50 -88
-23 -120 -42 -156 -95 -27 -39 -34 -64 -47 -156 -17 -120 -45 -191 -97 -251
-35 -40 -139 -114 -160 -114 -8 0 -18 -4 -24 -9 -23 -21 -158 -51 -238 -54
-102 -2 -110 3 -134 94 -20 79 -23 405 -4 604 39 432 50 1023 24 1295 -15 161
-27 221 -85 430 -20 73 -45 168 -52 205 l-7 30 -19 -23 c-10 -13 -21 -40 -24
-60 -23 -142 -98 -412 -155 -562 -12 -30 -25 -67 -30 -81 -4 -14 -12 -34 -18
-45 -6 -10 -24 -53 -40 -94 -46 -114 -122 -299 -149 -360 -27 -61 -57 -128
-78 -178 -23 -53 -70 -158 -121 -269 -42 -92 -193 -406 -204 -423 -5 -8 -20
-37 -34 -65 -14 -27 -41 -77 -60 -110 -20 -33 -40 -69 -45 -80 -5 -11 -18 -28
-29 -38 -18 -17 -23 -17 -49 -4 -15 8 -38 29 -51 46 -37 50 -102 179 -123 245
-11 34 -25 77 -31 96 -67 207 -56 573 28 990 22 106 70 297 86 342 5 14 14 41
18 60 13 47 64 189 78 215 7 12 12 26 12 32 0 10 28 74 99 221 17 36 46 92 66
125 19 33 39 69 45 80 70 131 198 294 335 426 177 171 310 249 502 295 55 13
101 15 195 12 145 -6 191 -21 233 -72 l30 -38 0 -236 c0 -271 9 -316 75 -382
40 -40 139 -80 197 -80 101 0 172 94 173 228 0 120 -66 316 -150 447 -11 17
-23 37 -27 45 -11 26 -95 133 -132 170 -71 71 -143 115 -275 169 -68 28 -291
56 -356 45z m-227 -2716 c6 -17 -7 -102 -33 -218 -12 -52 -26 -113 -30 -135
-38 -193 -89 -375 -135 -480 -103 -238 -188 -345 -274 -345 -72 0 -161 50
-161 91 0 18 11 46 56 146 13 29 29 62 34 75 5 13 14 30 19 38 5 8 18 33 29
55 11 22 29 56 40 75 12 19 31 55 43 80 13 25 42 77 64 115 23 39 44 77 48 85
4 8 16 29 27 45 11 17 24 39 30 50 6 11 19 34 30 50 11 17 24 39 30 50 21 39
36 62 98 148 63 87 76 98 85 75z"/>
<path d="M6028 2618 c-64 -80 -98 -210 -77 -292 22 -87 111 -144 226 -145 127
-2 253 92 253 186 0 54 -48 139 -111 197 -75 70 -130 96 -201 96 -55 0 -58 -2
-90 -42z"/>
</g>
</svg>
